<svg width="82" height="82" viewBox="0 0 82 82" fill="none" xmlns="http://www.w3.org/2000/svg">
<path fill-rule="evenodd" clip-rule="evenodd" d="M3.16977 2.46268C0.240833 5.39161 0.240831 10.1403 3.16976 13.0693L30.3934 40.2929L2.46266 68.2236C-0.466273 71.1525 -0.466274 75.9013 2.46266 78.8302C5.39159 81.7591 10.1403 81.7591 13.0693 78.8302L41 50.8995L68.9307 78.8302C71.8596 81.7591 76.6084 81.7591 79.5373 78.8302C82.4662 75.9013 82.4662 71.1525 79.5373 68.2236L51.6066 40.2929L78.8302 13.0693C81.7591 10.1404 81.7591 5.39161 78.8302 2.46268C75.9013 -0.466251 71.1525 -0.466251 68.2236 2.46268L41 29.6863L13.7764 2.46268C10.8474 -0.46625 6.0987 -0.466251 3.16977 2.46268Z" fill="#D9D9D9"/>
</svg>
