<svg width="90" height="106" viewBox="0 0 90 106" fill="none" xmlns="http://www.w3.org/2000/svg">
<path fill-rule="evenodd" clip-rule="evenodd" d="M8 0C3.58172 0 0 3.58172 0 8V98C0 102.418 3.58172 106 8 106H82C86.4183 106 90 102.418 90 98V8C90 3.58172 86.4183 0 82 0H8ZM16.6111 16C14.6167 16 13 17.8904 13 20.2222C13 22.5541 14.6167 24.4444 16.6111 24.4444H20.2222C22.2166 24.4444 23.8333 22.5541 23.8333 20.2222C23.8333 17.8904 22.2166 16 20.2222 16H16.6111ZM34.6667 16C32.6723 16 31.0556 17.8904 31.0556 20.2222C31.0556 22.5541 32.6723 24.4444 34.6667 24.4444H74.3889C76.3832 24.4444 78 22.5541 78 20.2222C78 17.8904 76.3832 16 74.3889 16H34.6667ZM31.0556 36.6667C31.0556 34.3348 32.6723 32.4444 34.6667 32.4444H74.3889C76.3832 32.4444 78 34.3348 78 36.6667C78 38.9985 76.3832 40.8889 74.3889 40.8889H34.6667C32.6723 40.8889 31.0556 38.9985 31.0556 36.6667ZM16.6111 32.4444C14.6167 32.4444 13 34.3348 13 36.6667C13 38.9985 14.6167 40.8889 16.6111 40.8889H20.2222C22.2166 40.8889 23.8333 38.9985 23.8333 36.6667C23.8333 34.3348 22.2166 32.4444 20.2222 32.4444H16.6111ZM31.0556 53.1111C31.0556 50.7792 32.6723 48.8889 34.6667 48.8889H74.3889C76.3832 48.8889 78 50.7792 78 53.1111C78 55.443 76.3832 57.3333 74.3889 57.3333H34.6667C32.6723 57.3333 31.0556 55.443 31.0556 53.1111ZM16.6111 48.8889C14.6167 48.8889 13 50.7792 13 53.1111C13 55.443 14.6167 57.3333 16.6111 57.3333H20.2222C22.2166 57.3333 23.8333 55.443 23.8333 53.1111C23.8333 50.7792 22.2166 48.8889 20.2222 48.8889H16.6111ZM31.0556 69.5556C31.0556 67.2237 32.6723 65.3333 34.6667 65.3333H74.3889C76.3832 65.3333 78 67.2237 78 69.5556C78 71.8874 76.3832 73.7778 74.3889 73.7778H34.6667C32.6723 73.7778 31.0556 71.8874 31.0556 69.5556ZM16.6111 65.3333C14.6167 65.3333 13 67.2237 13 69.5556C13 71.8874 14.6167 73.7778 16.6111 73.7778H20.2222C22.2166 73.7778 23.8333 71.8874 23.8333 69.5556C23.8333 67.2237 22.2166 65.3333 20.2222 65.3333H16.6111ZM31.0556 86C31.0556 83.6681 32.6723 81.7778 34.6667 81.7778H74.3889C76.3832 81.7778 78 83.6681 78 86C78 88.3319 76.3832 90.2222 74.3889 90.2222H34.6667C32.6723 90.2222 31.0556 88.3319 31.0556 86ZM16.6111 81.7778C14.6167 81.7778 13 83.6681 13 86C13 88.3319 14.6167 90.2222 16.6111 90.2222H20.2222C22.2166 90.2222 23.8333 88.3319 23.8333 86C23.8333 83.6681 22.2166 81.7778 20.2222 81.7778H16.6111Z" fill="#D9D9D9"/>
</svg>
