<svg width="177" height="182" viewBox="0 0 177 182" fill="none" xmlns="http://www.w3.org/2000/svg">
<path d="M0 8C0 3.58172 3.58172 0 8 0H24C28.4183 0 32 3.58172 32 8V12C32 16.4183 28.4183 20 24 20H8C3.58172 20 0 16.4183 0 12V8Z" fill="black" fill-opacity="0.05"/>
<path d="M0 38C0 33.5817 3.58172 30 8 30H24C28.4183 30 32 33.5817 32 38V42C32 46.4183 28.4183 50 24 50H8C3.58172 50 0 46.4183 0 42V38Z" fill="black" fill-opacity="0.05"/>
<path d="M42 8C42 3.58172 45.5817 0 50 0H162C166.418 0 170 3.58172 170 8V12C170 16.4183 166.418 20 162 20H50C45.5817 20 42 16.4183 42 12V8Z" fill="black" fill-opacity="0.05"/>
<path d="M42 38C42 33.5817 45.5817 30 50 30H162C166.418 30 170 33.5817 170 38V42C170 46.4183 166.418 50 162 50H50C45.5817 50 42 46.4183 42 42V38Z" fill="black" fill-opacity="0.05"/>
<path d="M0 68C0 63.5817 3.58172 60 8 60H24C28.4183 60 32 63.5817 32 68V72C32 76.4183 28.4183 80 24 80H8C3.58172 80 0 76.4183 0 72V68Z" fill="black" fill-opacity="0.05"/>
<path d="M0 98C0 93.5817 3.58172 90 8 90H24C28.4183 90 32 93.5817 32 98V102C32 106.418 28.4183 110 24 110H8C3.58172 110 0 106.418 0 102V98Z" fill="black" fill-opacity="0.05"/>
<path d="M0 128C0 123.582 3.58172 120 8 120H24C28.4183 120 32 123.582 32 128V132C32 136.418 28.4183 140 24 140H8C3.58172 140 0 136.418 0 132V128Z" fill="black" fill-opacity="0.05"/>
<path d="M0 158C0 153.582 3.58172 150 8 150H24C28.4183 150 32 153.582 32 158V162C32 166.418 28.4183 170 24 170H8C3.58172 170 0 166.418 0 162V158Z" fill="black" fill-opacity="0.05"/>
<path d="M42 68C42 63.5817 45.5817 60 50 60H162C166.418 60 170 63.5817 170 68V72C170 76.4183 166.418 80 162 80H50C45.5817 80 42 76.4183 42 72V68Z" fill="black" fill-opacity="0.05"/>
<path d="M42 98C42 93.5817 45.5817 90 50 90H162C166.418 90 170 93.5817 170 98V102C170 106.418 166.418 110 162 110H50C45.5817 110 42 106.418 42 102V98Z" fill="black" fill-opacity="0.05"/>
<path d="M42 128C42 123.582 45.5817 120 50 120H162C166.418 120 170 123.582 170 128V132C170 136.418 166.418 140 162 140H50C45.5817 140 42 136.418 42 132V128Z" fill="black" fill-opacity="0.05"/>
<path d="M42 158C42 153.582 45.5817 150 50 150H162C166.418 150 170 153.582 170 158V162C170 166.418 166.418 170 162 170H50C45.5817 170 42 166.418 42 162V158Z" fill="black" fill-opacity="0.05"/>
<path d="M125 163.83C125 163.83 126.767 178.852 150.626 178.852C174.485 178.852 176.252 163.83 176.252 163.83V75.0222C176.252 75.0222 174.485 60 150.626 60C126.767 60 125 75.0222 125 75.0222V163.83Z" fill="#C3C3C3"/>
<path d="M125 163.83C125 163.83 126.767 178.852 150.626 178.852C174.485 178.852 176.252 163.83 176.252 163.83V75.0222C176.252 75.0222 174.485 60 150.626 60C126.767 60 125 75.0222 125 75.0222V163.83Z" fill="#EFEBEB"/>
<path d="M145.324 178.58C164.152 176.549 165.648 163.83 165.648 163.83V75.0222C165.648 75.0222 164.152 62.3027 145.324 60.2719C146.957 60.0957 148.721 60 150.626 60C174.485 60 176.252 75.0222 176.252 75.0222V163.83C176.252 163.83 174.485 178.852 150.626 178.852C148.721 178.852 146.957 178.756 145.324 178.58Z" fill="black" fill-opacity="0.05"/>
<path d="M113.776 172.979C113.776 172.979 118.717 185.414 138.982 179.985C159.246 174.555 157.307 161.314 157.307 161.314L136.971 85.4185C136.971 85.4185 132.03 72.9826 111.765 78.4124C91.5011 83.8422 93.44 97.0826 93.44 97.0826L113.776 172.979Z" fill="#C3C3C3"/>
<path d="M113.776 172.979C113.776 172.979 118.717 185.414 138.982 179.985C159.246 174.555 157.307 161.314 157.307 161.314L136.971 85.4185C136.971 85.4185 132.03 72.9826 111.765 78.4124C91.5011 83.8422 93.44 97.0826 93.44 97.0826L113.776 172.979Z" fill="#EFEBEB"/>
<path d="M134.254 181.002C149.879 174.955 148.245 163.743 148.245 163.743L127.909 87.8467C127.909 87.8467 123.717 77.319 107.161 79.8951C108.517 79.3704 110.003 78.8846 111.631 78.4484C132.021 72.985 136.971 85.4185 136.971 85.4185L157.307 161.314C157.307 161.314 159.237 174.557 138.847 180.021C137.219 180.457 135.69 180.779 134.254 181.002Z" fill="black" fill-opacity="0.05"/>
</svg>
