<svg width="109" height="101" viewBox="0 0 109 101" fill="none" xmlns="http://www.w3.org/2000/svg">
<path d="M5.53382 0C2.47757 0 0 2.90846 0 6.49622C0 10.084 2.47757 12.9924 5.53382 12.9924H11.0676C14.1239 12.9924 16.6014 10.084 16.6014 6.49622C16.6014 2.90846 14.1239 0 11.0676 0H5.53382Z" fill="black" fill-opacity="0.05"/>
<path d="M33.2029 0C30.1467 0 27.6691 2.90846 27.6691 6.49622C27.6691 10.084 30.1467 12.9924 33.2029 12.9924H94.0749C97.1311 12.9924 99.6087 10.084 99.6087 6.49622C99.6087 2.90846 97.1311 0 94.0749 0H33.2029Z" fill="black" fill-opacity="0.05"/>
<path d="M5.53382 23.8195C2.47757 23.8195 0 26.7279 0 30.3157C0 33.9035 2.47757 36.8119 5.53382 36.8119H11.0676C14.1239 36.8119 16.6014 33.9035 16.6014 30.3157C16.6014 26.7279 14.1239 23.8195 11.0676 23.8195H5.53382Z" fill="black" fill-opacity="0.05"/>
<path d="M33.2029 23.8195C30.1467 23.8195 27.6691 26.7279 27.6691 30.3157C27.6691 33.9035 30.1467 36.8119 33.2029 36.8119H94.0749C97.1311 36.8119 99.6087 33.9035 99.6087 30.3157C99.6087 26.7279 97.1311 23.8195 94.0749 23.8195H33.2029Z" fill="black" fill-opacity="0.05"/>
<path d="M0 54.1352C0 50.5474 2.47757 47.6389 5.53382 47.6389H11.0676C14.1239 47.6389 16.6014 50.5474 16.6014 54.1352C16.6014 57.7229 14.1239 60.6314 11.0676 60.6314H5.53382C2.47757 60.6314 0 57.7229 0 54.1352Z" fill="black" fill-opacity="0.05"/>
<path d="M27.6691 54.1352C27.6691 50.5474 30.1467 47.6389 33.2029 47.6389H94.0749C97.1311 47.6389 99.6087 50.5474 99.6087 54.1352C99.6087 57.7229 97.1311 60.6314 94.0749 60.6314H33.2029C30.1467 60.6314 27.6691 57.7229 27.6691 54.1352Z" fill="black" fill-opacity="0.05"/>
<path d="M5.53382 71.4584C2.47757 71.4584 0 74.3669 0 77.9546C0 81.5424 2.47757 84.4509 5.53382 84.4509H11.0676C14.1239 84.4509 16.6014 81.5424 16.6014 77.9546C16.6014 74.3669 14.1239 71.4584 11.0676 71.4584H5.53382Z" fill="black" fill-opacity="0.05"/>
<path d="M33.2029 71.4584C30.1467 71.4584 27.6691 74.3669 27.6691 77.9546C27.6691 81.5424 30.1467 84.4509 33.2029 84.4509H70.834C70.9261 84.4509 71 84.3751 71 84.283V84.283C71 80.2403 74.2773 76.963 78.32 76.963H84.2665C84.8188 76.963 85.2665 76.5153 85.2665 75.963V72.4584C85.2665 71.9061 84.8188 71.4584 84.2665 71.4584H33.2029Z" fill="black" fill-opacity="0.05"/>
<path d="M78.0976 86.5489C76.9997 86.4424 76.1301 85.5561 76.0496 84.4509C76.0455 84.3954 76.0435 84.3395 76.0435 84.283C76.0435 83.0306 77.0548 82.0144 78.3053 82.0065C78.3102 82.0065 78.3151 82.0064 78.32 82.0064H89.31C89.8623 82.0064 90.31 81.5587 90.31 81.0064V70.32C90.31 69.1413 91.2058 68.1718 92.3538 68.0552C92.4303 68.0475 92.508 68.0435 92.5866 68.0435C93.8439 68.0435 94.8631 69.0627 94.8631 70.32V81.0064C94.8631 81.5587 95.3108 82.0064 95.8631 82.0064H106.55C107.807 82.0064 108.826 83.0257 108.826 84.283C108.826 85.5403 107.807 86.5596 106.55 86.5596H95.8631C95.3108 86.5596 94.8631 87.0073 94.8631 87.5596V98.5495C94.8631 99.8068 93.8439 100.826 92.5866 100.826C92.508 100.826 92.4303 100.822 92.3538 100.814C91.2058 100.698 90.31 99.7282 90.31 98.5495V87.5596C90.31 87.0073 89.8623 86.5596 89.31 86.5596H78.32C78.245 86.5596 78.1708 86.556 78.0976 86.5489Z" fill="black" fill-opacity="0.05"/>
</svg>
