<svg width="108" height="108" viewBox="0 0 108 108" fill="none" xmlns="http://www.w3.org/2000/svg">
<path fill-rule="evenodd" clip-rule="evenodd" d="M63.2417 0C65.0462 0 66.6272 1.20815 67.1012 2.94923L68.9863 9.87295C69.6737 12.3979 72.5604 13.5936 74.8319 12.2943L80.7425 8.91332C82.3088 8.01737 84.2811 8.28105 85.557 9.55699L98.6268 22.6268C99.9027 23.9027 100.166 25.875 99.2704 27.4413L95.9557 33.2362C94.6564 35.5077 95.8521 38.3944 98.377 39.0818L105.051 40.8988C106.792 41.3728 108 42.9538 108 44.7583V63.2417C108 65.0462 106.792 66.6272 105.051 67.1012L98.5131 68.8811C95.9882 69.5686 94.7925 72.4553 96.0918 74.7268L99.638 80.9262C100.534 82.4926 100.27 84.4648 98.9943 85.7408L85.9245 98.8105C84.6486 100.086 82.6763 100.35 81.11 99.4542L74.7948 95.8418C72.5233 94.5425 69.6366 95.7382 68.9492 98.2632L67.1012 105.051C66.6272 106.792 65.0462 108 63.2417 108H44.7583C42.9538 108 41.3728 106.792 40.8988 105.051L39.1189 98.5131C38.4314 95.9882 35.5447 94.7925 33.2732 96.0918L27.0738 99.638C25.5074 100.534 23.5352 100.27 22.2592 98.9943L9.18946 85.9245C7.91352 84.6486 7.64984 82.6763 8.54579 81.11L12.1582 74.7948C13.4575 72.5233 12.2618 69.6366 9.73685 68.9492L2.94923 67.1012C1.20815 66.6272 0 65.0462 0 63.2417V44.7583C0 42.9538 1.20815 41.3728 2.94923 40.8988L9.87295 39.0137C12.3979 38.3263 13.5936 35.4396 12.2943 33.1681L8.91332 27.2575C8.01737 25.6912 8.28105 23.719 9.55699 22.443L22.6268 9.37323C23.9027 8.09728 25.875 7.83361 27.4413 8.72956L33.2362 12.0443C35.5077 13.3436 38.3944 12.1479 39.0818 9.62299L40.8988 2.94923C41.3728 1.20814 42.9538 0 44.7583 0H63.2417ZM54 81C68.9117 81 81 68.9117 81 54C81 39.0883 68.9117 27 54 27C39.0883 27 27 39.0883 27 54C27 68.9117 39.0883 81 54 81Z" fill="#D9D9D9"/>
</svg>
