<svg width="108" height="108" viewBox="0 0 108 108" fill="none" xmlns="http://www.w3.org/2000/svg">
<path d="M1.13765e-08 84C1.13765e-08 80.6863 2.68629 78 6 78H21C24.3137 78 27 80.6863 27 84C27 87.3137 24.3137 90 21 90H6C2.68629 90 1.13765e-08 87.3137 1.13765e-08 84Z" fill="#D9D9D9"/>
<path d="M1.13765e-08 102C1.13765e-08 98.6863 2.68629 96 6 96H21C24.3137 96 27 98.6863 27 102C27 105.314 24.3137 108 21 108H6C2.68629 108 1.13765e-08 105.314 1.13765e-08 102Z" fill="#D9D9D9"/>
<path d="M37 84C37 80.6863 39.6863 78 43 78H102C105.314 78 108 80.6863 108 84C108 87.3137 105.314 90 102 90H43C39.6863 90 37 87.3137 37 84Z" fill="#D9D9D9"/>
<path d="M37 102C37 98.6863 39.6863 96 43 96H102C105.314 96 108 98.6863 108 102C108 105.314 105.314 108 102 108H43C39.6863 108 37 105.314 37 102Z" fill="#D9D9D9"/>
<path d="M78 34C78 29.5817 81.5817 26 86 26H100C104.418 26 108 29.5817 108 34C108 38.4183 104.418 42 100 42H86C81.5817 42 78 38.4183 78 34Z" fill="#D9D9D9"/>
<path d="M78 34C78 29.5817 81.5817 26 86 26H100C104.418 26 108 29.5817 108 34C108 38.4183 104.418 42 100 42H86C81.5817 42 78 38.4183 78 34Z" fill="#D9D9D9"/>
<path d="M78 59C78 54.5817 81.5817 51 86 51H100C104.418 51 108 54.5817 108 59V60C108 64.4183 104.418 68 100 68H86C81.5817 68 78 64.4183 78 60V59Z" fill="#D9D9D9"/>
<path d="M78 8C78 3.58172 81.5817 0 86 0H100C104.418 0 108 3.58172 108 8V9C108 13.4183 104.418 17 100 17H86C81.5817 17 78 13.4183 78 9V8Z" fill="#D9D9D9"/>
<path d="M64.1443 34C66.3935 34 68.242 35.824 67.9741 38.0502C67.2665 43.9299 65.0266 49.5488 61.4458 54.3326C57.0497 60.2057 50.8677 64.5059 43.8209 66.5925C36.774 68.679 29.2395 68.4404 22.3398 65.912C15.4401 63.3837 9.54443 58.7009 5.53125 52.5614C1.51806 46.422 -0.397887 39.1544 0.0688381 31.8414C0.535563 24.5283 3.35999 17.5613 8.12131 11.9783C12.8826 6.39529 19.326 2.49504 26.4916 0.858642C32.3281 -0.474263 38.3893 -0.247074 44.0711 1.48264C46.2222 2.13753 47.1495 4.55991 46.2409 6.61097L36.6332 28.3005C35.4444 30.9841 37.4158 34 40.3588 34H64.1443Z" fill="#D9D9D9"/>
</svg>
