<svg width="115" height="93" viewBox="0 0 115 93" fill="none" xmlns="http://www.w3.org/2000/svg">
<path fill-rule="evenodd" clip-rule="evenodd" d="M83.0623 73.7022C84.8824 71.2748 83.9503 67.8867 81.3145 66.3649L53.4414 50.2723C49.9927 48.2812 49.7229 43.4132 52.9317 41.0726L78.865 22.156C81.3174 20.3672 81.8697 16.9011 79.7919 14.6783C74.3041 8.80723 67.3549 4.44015 59.6135 2.05328C50.1094 -0.877079 39.9199 -0.66597 30.563 2.65515C21.2061 5.97627 13.1826 12.2297 7.68791 20.4837C2.19321 28.7377 -0.478629 38.5505 0.0704511 48.4603C0.619532 58.3701 4.36015 67.8464 10.735 75.4774C17.1099 83.1084 25.7778 88.4858 35.4474 90.8083C45.117 93.1308 55.2707 92.2741 64.3959 88.366C71.8287 85.1827 78.255 80.1136 83.0623 73.7022ZM53.432 25.673C57.5423 25.673 60.8743 22.341 60.8743 18.2307C60.8743 14.1205 57.5423 10.7885 53.432 10.7885C49.3218 10.7885 45.9898 14.1205 45.9898 18.2307C45.9898 22.341 49.3218 25.673 53.432 25.673Z" fill="#D9D9D9"/>
<path d="M74.8082 35.145C74.8082 35.145 68.9932 35.8291 68.9932 45.0647C68.9932 54.3002 74.8082 54.9844 74.8082 54.9844H109.185C109.185 54.9844 115 54.3002 115 45.0647C115 35.8291 109.185 35.145 109.185 35.145H74.8082Z" fill="#D9D9D9"/>
<path d="M69.0984 44.3654C69.8846 51.6535 74.8082 52.2328 74.8082 52.2328H109.185C109.185 52.2328 114.109 51.6535 114.895 44.3654C114.963 44.9977 115 45.6805 115 46.4178C115 55.6533 109.185 56.3374 109.185 56.3374H74.8082C74.8082 56.3374 68.9932 55.6533 68.9932 46.4178C68.9932 45.6805 69.0303 44.9977 69.0984 44.3654Z" fill="black" fill-opacity="0.1"/>
</svg>
